<mxfile host="Electron" modified="2024-07-04T08:08:29.367Z" agent="Mozilla/5.0 (X11; Linux x86_64) AppleWebKit/537.36 (KHTML, like Gecko) draw.io/24.6.1 Chrome/124.0.6367.207 Electron/30.0.6 Safari/537.36" etag="SD_I9CY79esZSvyAYX1R" version="24.6.1" type="device" pages="3">
  <diagram id="C5RBs43oDa-KdzZeNtuy" name="Version-1">
    <mxGraphModel dx="1434" dy="843" grid="1" gridSize="10" guides="1" tooltips="1" connect="1" arrows="1" fold="1" page="0" pageScale="1" pageWidth="827" pageHeight="1169" math="0" shadow="0">
      <root>
        <mxCell id="WIyWlLk6GJQsqaUBKTNV-0" />
        <mxCell id="WIyWlLk6GJQsqaUBKTNV-1" parent="WIyWlLk6GJQsqaUBKTNV-0" />
        <mxCell id="9OZdfVUQXRZFReurkTuY-8" style="edgeStyle=orthogonalEdgeStyle;rounded=0;orthogonalLoop=1;jettySize=auto;html=1;entryX=0;entryY=0.5;entryDx=0;entryDy=0;" parent="WIyWlLk6GJQsqaUBKTNV-1" source="9OZdfVUQXRZFReurkTuY-1" target="9OZdfVUQXRZFReurkTuY-4" edge="1">
          <mxGeometry relative="1" as="geometry" />
        </mxCell>
        <mxCell id="9OZdfVUQXRZFReurkTuY-1" value="" style="rounded=1;whiteSpace=wrap;html=1;" parent="WIyWlLk6GJQsqaUBKTNV-1" vertex="1">
          <mxGeometry x="92.5" y="270" width="120" height="60" as="geometry" />
        </mxCell>
        <mxCell id="9OZdfVUQXRZFReurkTuY-9" style="edgeStyle=orthogonalEdgeStyle;rounded=0;orthogonalLoop=1;jettySize=auto;html=1;entryX=0;entryY=0.5;entryDx=0;entryDy=0;" parent="WIyWlLk6GJQsqaUBKTNV-1" source="9OZdfVUQXRZFReurkTuY-2" target="9OZdfVUQXRZFReurkTuY-5" edge="1">
          <mxGeometry relative="1" as="geometry" />
        </mxCell>
        <mxCell id="9OZdfVUQXRZFReurkTuY-2" value="" style="rounded=1;whiteSpace=wrap;html=1;" parent="WIyWlLk6GJQsqaUBKTNV-1" vertex="1">
          <mxGeometry x="92.5" y="410" width="120" height="60" as="geometry" />
        </mxCell>
        <mxCell id="9OZdfVUQXRZFReurkTuY-4" value="Metric-Poller-1" style="rounded=0;whiteSpace=wrap;html=1;" parent="WIyWlLk6GJQsqaUBKTNV-1" vertex="1">
          <mxGeometry x="332.5" y="270" width="120" height="60" as="geometry" />
        </mxCell>
        <mxCell id="9OZdfVUQXRZFReurkTuY-5" value="Metric-Poller-2" style="rounded=0;whiteSpace=wrap;html=1;" parent="WIyWlLk6GJQsqaUBKTNV-1" vertex="1">
          <mxGeometry x="332.5" y="410" width="120" height="60" as="geometry" />
        </mxCell>
        <mxCell id="9OZdfVUQXRZFReurkTuY-21" value="" style="shape=parallelogram;perimeter=parallelogramPerimeter;whiteSpace=wrap;html=1;fixedSize=1;" parent="WIyWlLk6GJQsqaUBKTNV-1" vertex="1">
          <mxGeometry x="805" y="270" width="120" height="60" as="geometry" />
        </mxCell>
        <mxCell id="9OZdfVUQXRZFReurkTuY-22" value="" style="shape=parallelogram;perimeter=parallelogramPerimeter;whiteSpace=wrap;html=1;fixedSize=1;" parent="WIyWlLk6GJQsqaUBKTNV-1" vertex="1">
          <mxGeometry x="805" y="410" width="120" height="60" as="geometry" />
        </mxCell>
        <mxCell id="9OZdfVUQXRZFReurkTuY-24" value="D-1" style="ellipse;whiteSpace=wrap;html=1;aspect=fixed;" parent="WIyWlLk6GJQsqaUBKTNV-1" vertex="1">
          <mxGeometry x="840" y="275" width="50" height="50" as="geometry" />
        </mxCell>
        <mxCell id="9OZdfVUQXRZFReurkTuY-28" value="D-2" style="ellipse;whiteSpace=wrap;html=1;aspect=fixed;" parent="WIyWlLk6GJQsqaUBKTNV-1" vertex="1">
          <mxGeometry x="840" y="415" width="50" height="50" as="geometry" />
        </mxCell>
        <mxCell id="9OZdfVUQXRZFReurkTuY-73" value="D-2" style="ellipse;whiteSpace=wrap;html=1;aspect=fixed;" parent="WIyWlLk6GJQsqaUBKTNV-1" vertex="1">
          <mxGeometry x="127.5" y="415" width="50" height="50" as="geometry" />
        </mxCell>
        <mxCell id="9OZdfVUQXRZFReurkTuY-75" value="D-1" style="ellipse;whiteSpace=wrap;html=1;aspect=fixed;" parent="WIyWlLk6GJQsqaUBKTNV-1" vertex="1">
          <mxGeometry x="127.5" y="275" width="50" height="50" as="geometry" />
        </mxCell>
        <mxCell id="9OZdfVUQXRZFReurkTuY-76" value="Discovery-1" style="text;html=1;align=center;verticalAlign=middle;resizable=0;points=[];autosize=1;strokeColor=none;fillColor=none;" parent="WIyWlLk6GJQsqaUBKTNV-1" vertex="1">
          <mxGeometry x="107.5" y="240" width="90" height="30" as="geometry" />
        </mxCell>
        <mxCell id="9OZdfVUQXRZFReurkTuY-77" value="Discovery-2" style="text;html=1;align=center;verticalAlign=middle;resizable=0;points=[];autosize=1;strokeColor=none;fillColor=none;" parent="WIyWlLk6GJQsqaUBKTNV-1" vertex="1">
          <mxGeometry x="107.5" y="380" width="90" height="30" as="geometry" />
        </mxCell>
        <mxCell id="9OZdfVUQXRZFReurkTuY-79" value="Go-Process-1" style="text;html=1;align=center;verticalAlign=middle;resizable=0;points=[];autosize=1;strokeColor=none;fillColor=none;fontStyle=3;fontSize=13;" parent="WIyWlLk6GJQsqaUBKTNV-1" vertex="1">
          <mxGeometry x="825" y="240" width="100" height="30" as="geometry" />
        </mxCell>
        <mxCell id="9OZdfVUQXRZFReurkTuY-80" value="" style="rounded=0;whiteSpace=wrap;html=1;shadow=0;fillOpacity=0;" parent="WIyWlLk6GJQsqaUBKTNV-1" vertex="1">
          <mxGeometry x="50" y="150" width="480" height="410" as="geometry" />
        </mxCell>
        <mxCell id="9OZdfVUQXRZFReurkTuY-81" value="Java-Process-1" style="text;html=1;align=center;verticalAlign=middle;resizable=0;points=[];autosize=1;strokeColor=none;fillColor=none;fontStyle=3;fontSize=19;" parent="WIyWlLk6GJQsqaUBKTNV-1" vertex="1">
          <mxGeometry x="40" y="110" width="160" height="40" as="geometry" />
        </mxCell>
        <mxCell id="9OZdfVUQXRZFReurkTuY-86" value="&lt;b&gt;&lt;i&gt;IPC&lt;/i&gt;&lt;/b&gt;" style="text;html=1;align=center;verticalAlign=middle;resizable=0;points=[];autosize=1;strokeColor=none;fillColor=none;" parent="WIyWlLk6GJQsqaUBKTNV-1" vertex="1">
          <mxGeometry x="605" y="258" width="40" height="30" as="geometry" />
        </mxCell>
        <mxCell id="9OZdfVUQXRZFReurkTuY-87" value="&lt;b&gt;&lt;i&gt;IPC&lt;/i&gt;&lt;/b&gt;" style="text;html=1;align=center;verticalAlign=middle;resizable=0;points=[];autosize=1;strokeColor=none;fillColor=none;" parent="WIyWlLk6GJQsqaUBKTNV-1" vertex="1">
          <mxGeometry x="615" y="400" width="40" height="30" as="geometry" />
        </mxCell>
        <mxCell id="9OZdfVUQXRZFReurkTuY-92" value="" style="endArrow=classic;startArrow=classic;html=1;rounded=0;exitX=1;exitY=0.5;exitDx=0;exitDy=0;" parent="WIyWlLk6GJQsqaUBKTNV-1" source="9OZdfVUQXRZFReurkTuY-4" edge="1">
          <mxGeometry width="50" height="50" relative="1" as="geometry">
            <mxPoint x="565" y="310" as="sourcePoint" />
            <mxPoint x="815" y="299" as="targetPoint" />
          </mxGeometry>
        </mxCell>
        <mxCell id="9OZdfVUQXRZFReurkTuY-93" value="" style="endArrow=classic;startArrow=classic;html=1;rounded=0;exitX=1;exitY=0.5;exitDx=0;exitDy=0;" parent="WIyWlLk6GJQsqaUBKTNV-1" edge="1">
          <mxGeometry width="50" height="50" relative="1" as="geometry">
            <mxPoint x="454" y="440.5" as="sourcePoint" />
            <mxPoint x="816" y="439.5" as="targetPoint" />
          </mxGeometry>
        </mxCell>
        <mxCell id="9OZdfVUQXRZFReurkTuY-99" value="&lt;font style=&quot;font-size: 13px;&quot;&gt;Go-Process-2&lt;/font&gt;" style="text;html=1;align=center;verticalAlign=middle;resizable=0;points=[];autosize=1;strokeColor=none;fillColor=none;fontStyle=3;fontSize=19;" parent="WIyWlLk6GJQsqaUBKTNV-1" vertex="1">
          <mxGeometry x="825" y="370" width="100" height="40" as="geometry" />
        </mxCell>
        <mxCell id="9OZdfVUQXRZFReurkTuY-105" value="Scheduler-1" style="text;html=1;align=center;verticalAlign=middle;resizable=0;points=[];autosize=1;strokeColor=none;fillColor=none;" parent="WIyWlLk6GJQsqaUBKTNV-1" vertex="1">
          <mxGeometry x="347.5" y="240" width="90" height="30" as="geometry" />
        </mxCell>
        <mxCell id="9OZdfVUQXRZFReurkTuY-106" value="Scheduler-2" style="text;html=1;align=center;verticalAlign=middle;resizable=0;points=[];autosize=1;strokeColor=none;fillColor=none;" parent="WIyWlLk6GJQsqaUBKTNV-1" vertex="1">
          <mxGeometry x="347.5" y="380" width="90" height="30" as="geometry" />
        </mxCell>
      </root>
    </mxGraphModel>
  </diagram>
  <diagram id="FoqopDVUrKK_7Zn-dAIG" name="Version-2">
    <mxGraphModel dx="1834" dy="443" grid="1" gridSize="10" guides="1" tooltips="1" connect="1" arrows="1" fold="1" page="0" pageScale="1" pageWidth="827" pageHeight="1169" math="0" shadow="0">
      <root>
        <mxCell id="0" />
        <mxCell id="1" parent="0" />
        <mxCell id="3S1jbaAXfcjCPufyCK_0-1" style="edgeStyle=orthogonalEdgeStyle;rounded=0;orthogonalLoop=1;jettySize=auto;html=1;entryX=0;entryY=0.5;entryDx=0;entryDy=0;" edge="1" parent="1" source="3S1jbaAXfcjCPufyCK_0-2" target="3S1jbaAXfcjCPufyCK_0-3">
          <mxGeometry relative="1" as="geometry" />
        </mxCell>
        <mxCell id="3S1jbaAXfcjCPufyCK_0-2" value="" style="rounded=1;whiteSpace=wrap;html=1;" vertex="1" parent="1">
          <mxGeometry x="-60" y="630" width="180" height="130" as="geometry" />
        </mxCell>
        <mxCell id="3S1jbaAXfcjCPufyCK_0-3" value="Metric-Poller-1" style="rounded=0;whiteSpace=wrap;html=1;" vertex="1" parent="1">
          <mxGeometry x="270" y="665" width="120" height="60" as="geometry" />
        </mxCell>
        <mxCell id="3S1jbaAXfcjCPufyCK_0-4" value="Metric-Poller-2" style="rounded=0;whiteSpace=wrap;html=1;" vertex="1" parent="1">
          <mxGeometry x="280" y="875" width="120" height="60" as="geometry" />
        </mxCell>
        <mxCell id="3S1jbaAXfcjCPufyCK_0-5" value="" style="shape=parallelogram;perimeter=parallelogramPerimeter;whiteSpace=wrap;html=1;fixedSize=1;" vertex="1" parent="1">
          <mxGeometry x="722.5" y="611.25" width="250" height="167.5" as="geometry" />
        </mxCell>
        <mxCell id="3S1jbaAXfcjCPufyCK_0-6" value="" style="shape=parallelogram;perimeter=parallelogramPerimeter;whiteSpace=wrap;html=1;fixedSize=1;" vertex="1" parent="1">
          <mxGeometry x="700" y="840" width="260" height="170" as="geometry" />
        </mxCell>
        <mxCell id="3S1jbaAXfcjCPufyCK_0-7" value="D-2" style="ellipse;whiteSpace=wrap;html=1;aspect=fixed;" vertex="1" parent="1">
          <mxGeometry x="40" y="640" width="50" height="50" as="geometry" />
        </mxCell>
        <mxCell id="3S1jbaAXfcjCPufyCK_0-8" value="D-1" style="ellipse;whiteSpace=wrap;html=1;aspect=fixed;" vertex="1" parent="1">
          <mxGeometry x="770" y="641.25" width="50" height="50" as="geometry" />
        </mxCell>
        <mxCell id="3S1jbaAXfcjCPufyCK_0-9" value="D-1" style="ellipse;whiteSpace=wrap;html=1;aspect=fixed;" vertex="1" parent="1">
          <mxGeometry x="-40" y="640" width="50" height="50" as="geometry" />
        </mxCell>
        <mxCell id="3S1jbaAXfcjCPufyCK_0-10" value="D-3" style="ellipse;whiteSpace=wrap;html=1;aspect=fixed;" vertex="1" parent="1">
          <mxGeometry x="-40" y="700" width="50" height="50" as="geometry" />
        </mxCell>
        <mxCell id="3S1jbaAXfcjCPufyCK_0-11" value="D-4" style="ellipse;whiteSpace=wrap;html=1;aspect=fixed;" vertex="1" parent="1">
          <mxGeometry x="40" y="700" width="50" height="50" as="geometry" />
        </mxCell>
        <mxCell id="3S1jbaAXfcjCPufyCK_0-12" style="edgeStyle=orthogonalEdgeStyle;rounded=0;orthogonalLoop=1;jettySize=auto;html=1;entryX=0;entryY=0.5;entryDx=0;entryDy=0;" edge="1" parent="1" source="3S1jbaAXfcjCPufyCK_0-13" target="3S1jbaAXfcjCPufyCK_0-4">
          <mxGeometry relative="1" as="geometry" />
        </mxCell>
        <mxCell id="3S1jbaAXfcjCPufyCK_0-13" value="" style="rounded=1;whiteSpace=wrap;html=1;" vertex="1" parent="1">
          <mxGeometry x="-60" y="840" width="180" height="130" as="geometry" />
        </mxCell>
        <mxCell id="3S1jbaAXfcjCPufyCK_0-14" value="D-2" style="ellipse;whiteSpace=wrap;html=1;aspect=fixed;" vertex="1" parent="1">
          <mxGeometry x="45" y="855" width="50" height="50" as="geometry" />
        </mxCell>
        <mxCell id="3S1jbaAXfcjCPufyCK_0-15" value="D-1" style="ellipse;whiteSpace=wrap;html=1;aspect=fixed;" vertex="1" parent="1">
          <mxGeometry x="-40" y="855" width="50" height="50" as="geometry" />
        </mxCell>
        <mxCell id="3S1jbaAXfcjCPufyCK_0-16" value="D-3" style="ellipse;whiteSpace=wrap;html=1;aspect=fixed;" vertex="1" parent="1">
          <mxGeometry x="5" y="905" width="50" height="50" as="geometry" />
        </mxCell>
        <mxCell id="3S1jbaAXfcjCPufyCK_0-17" value="D-2" style="ellipse;whiteSpace=wrap;html=1;aspect=fixed;" vertex="1" parent="1">
          <mxGeometry x="892.5" y="641.25" width="50" height="50" as="geometry" />
        </mxCell>
        <mxCell id="3S1jbaAXfcjCPufyCK_0-18" value="D-4" style="ellipse;whiteSpace=wrap;html=1;aspect=fixed;" vertex="1" parent="1">
          <mxGeometry x="892.5" y="721.25" width="50" height="50" as="geometry" />
        </mxCell>
        <mxCell id="3S1jbaAXfcjCPufyCK_0-19" value="D-3" style="ellipse;whiteSpace=wrap;html=1;aspect=fixed;" vertex="1" parent="1">
          <mxGeometry x="770" y="721.25" width="50" height="50" as="geometry" />
        </mxCell>
        <mxCell id="3S1jbaAXfcjCPufyCK_0-20" value="D-1" style="ellipse;whiteSpace=wrap;html=1;aspect=fixed;" vertex="1" parent="1">
          <mxGeometry x="740" y="880" width="50" height="50" as="geometry" />
        </mxCell>
        <mxCell id="3S1jbaAXfcjCPufyCK_0-21" value="D-2" style="ellipse;whiteSpace=wrap;html=1;aspect=fixed;" vertex="1" parent="1">
          <mxGeometry x="870" y="880" width="50" height="50" as="geometry" />
        </mxCell>
        <mxCell id="3S1jbaAXfcjCPufyCK_0-22" value="D-3" style="ellipse;whiteSpace=wrap;html=1;aspect=fixed;" vertex="1" parent="1">
          <mxGeometry x="800" y="945" width="50" height="50" as="geometry" />
        </mxCell>
        <mxCell id="3S1jbaAXfcjCPufyCK_0-23" value="Discovery-1" style="text;html=1;align=center;verticalAlign=middle;resizable=0;points=[];autosize=1;strokeColor=none;fillColor=none;" vertex="1" parent="1">
          <mxGeometry x="-15" y="600" width="90" height="30" as="geometry" />
        </mxCell>
        <mxCell id="3S1jbaAXfcjCPufyCK_0-24" value="Discovery-2" style="text;html=1;align=center;verticalAlign=middle;resizable=0;points=[];autosize=1;strokeColor=none;fillColor=none;" vertex="1" parent="1">
          <mxGeometry x="-12.5" y="810" width="90" height="30" as="geometry" />
        </mxCell>
        <mxCell id="3S1jbaAXfcjCPufyCK_0-25" value="" style="rounded=0;whiteSpace=wrap;html=1;shadow=0;fillOpacity=0;" vertex="1" parent="1">
          <mxGeometry x="-100" y="550" width="530" height="480" as="geometry" />
        </mxCell>
        <mxCell id="3S1jbaAXfcjCPufyCK_0-26" value="&lt;b&gt;&lt;i&gt;IPC&lt;/i&gt;&lt;/b&gt;" style="text;html=1;align=center;verticalAlign=middle;resizable=0;points=[];autosize=1;strokeColor=none;fillColor=none;" vertex="1" parent="1">
          <mxGeometry x="535" y="660" width="40" height="30" as="geometry" />
        </mxCell>
        <mxCell id="3S1jbaAXfcjCPufyCK_0-27" value="&lt;b&gt;&lt;i&gt;IPC&lt;/i&gt;&lt;/b&gt;" style="text;html=1;align=center;verticalAlign=middle;resizable=0;points=[];autosize=1;strokeColor=none;fillColor=none;" vertex="1" parent="1">
          <mxGeometry x="520" y="865" width="40" height="30" as="geometry" />
        </mxCell>
        <mxCell id="3S1jbaAXfcjCPufyCK_0-28" value="" style="endArrow=classic;startArrow=classic;html=1;rounded=0;exitX=1;exitY=0.5;exitDx=0;exitDy=0;entryX=0;entryY=0.5;entryDx=0;entryDy=0;" edge="1" parent="1" target="3S1jbaAXfcjCPufyCK_0-5">
          <mxGeometry width="50" height="50" relative="1" as="geometry">
            <mxPoint x="390.5" y="695.5" as="sourcePoint" />
            <mxPoint x="700" y="694.5" as="targetPoint" />
          </mxGeometry>
        </mxCell>
        <mxCell id="3S1jbaAXfcjCPufyCK_0-29" value="" style="endArrow=classic;startArrow=classic;html=1;rounded=0;exitX=1;exitY=0.5;exitDx=0;exitDy=0;" edge="1" parent="1">
          <mxGeometry width="50" height="50" relative="1" as="geometry">
            <mxPoint x="395.5" y="895.5" as="sourcePoint" />
            <mxPoint x="710" y="895" as="targetPoint" />
          </mxGeometry>
        </mxCell>
        <mxCell id="3S1jbaAXfcjCPufyCK_0-30" value="Go-Process-1" style="text;html=1;align=center;verticalAlign=middle;resizable=0;points=[];autosize=1;strokeColor=none;fillColor=none;fontStyle=3;fontSize=13;" vertex="1" parent="1">
          <mxGeometry x="757.5" y="571.25" width="100" height="30" as="geometry" />
        </mxCell>
        <mxCell id="3S1jbaAXfcjCPufyCK_0-31" value="&lt;font style=&quot;font-size: 13px;&quot;&gt;Go-Process-2&lt;/font&gt;" style="text;html=1;align=center;verticalAlign=middle;resizable=0;points=[];autosize=1;strokeColor=none;fillColor=none;fontStyle=3;fontSize=19;" vertex="1" parent="1">
          <mxGeometry x="750" y="805" width="100" height="40" as="geometry" />
        </mxCell>
        <mxCell id="3S1jbaAXfcjCPufyCK_0-32" value="Java-Process-1" style="text;html=1;align=center;verticalAlign=middle;resizable=0;points=[];autosize=1;strokeColor=none;fillColor=none;fontStyle=3;fontSize=19;" vertex="1" parent="1">
          <mxGeometry x="-100" y="510" width="160" height="40" as="geometry" />
        </mxCell>
        <mxCell id="3S1jbaAXfcjCPufyCK_0-33" value="Scheduler-2" style="text;html=1;align=center;verticalAlign=middle;resizable=0;points=[];autosize=1;strokeColor=none;fillColor=none;" vertex="1" parent="1">
          <mxGeometry x="285" y="840" width="90" height="30" as="geometry" />
        </mxCell>
        <mxCell id="3S1jbaAXfcjCPufyCK_0-34" value="Scheduler-1" style="text;html=1;align=center;verticalAlign=middle;resizable=0;points=[];autosize=1;strokeColor=none;fillColor=none;" vertex="1" parent="1">
          <mxGeometry x="285" y="630" width="90" height="30" as="geometry" />
        </mxCell>
        <mxCell id="3S1jbaAXfcjCPufyCK_0-35" value="GR-1" style="text;html=1;align=center;verticalAlign=middle;resizable=0;points=[];autosize=1;strokeColor=none;fillColor=none;fontStyle=3;fontSize=13;" vertex="1" parent="1">
          <mxGeometry x="770" y="611.25" width="50" height="30" as="geometry" />
        </mxCell>
        <mxCell id="3S1jbaAXfcjCPufyCK_0-36" value="GR-2" style="text;html=1;align=center;verticalAlign=middle;resizable=0;points=[];autosize=1;strokeColor=none;fillColor=none;fontStyle=3;fontSize=13;" vertex="1" parent="1">
          <mxGeometry x="892.5" y="611.25" width="50" height="30" as="geometry" />
        </mxCell>
        <mxCell id="3S1jbaAXfcjCPufyCK_0-37" value="GR-3" style="text;html=1;align=center;verticalAlign=middle;resizable=0;points=[];autosize=1;strokeColor=none;fillColor=none;fontStyle=3;fontSize=13;" vertex="1" parent="1">
          <mxGeometry x="770" y="691.25" width="50" height="30" as="geometry" />
        </mxCell>
        <mxCell id="3S1jbaAXfcjCPufyCK_0-38" value="GR-4" style="text;html=1;align=center;verticalAlign=middle;resizable=0;points=[];autosize=1;strokeColor=none;fillColor=none;fontStyle=3;fontSize=13;" vertex="1" parent="1">
          <mxGeometry x="892.5" y="691.25" width="50" height="30" as="geometry" />
        </mxCell>
        <mxCell id="3S1jbaAXfcjCPufyCK_0-39" value="GR-1" style="text;html=1;align=center;verticalAlign=middle;resizable=0;points=[];autosize=1;strokeColor=none;fillColor=none;fontStyle=3;fontSize=13;" vertex="1" parent="1">
          <mxGeometry x="740" y="850" width="50" height="30" as="geometry" />
        </mxCell>
        <mxCell id="3S1jbaAXfcjCPufyCK_0-40" value="GR-2" style="text;html=1;align=center;verticalAlign=middle;resizable=0;points=[];autosize=1;strokeColor=none;fillColor=none;fontStyle=3;fontSize=13;" vertex="1" parent="1">
          <mxGeometry x="870" y="850" width="50" height="30" as="geometry" />
        </mxCell>
        <mxCell id="3S1jbaAXfcjCPufyCK_0-41" value="GR-3" style="text;html=1;align=center;verticalAlign=middle;resizable=0;points=[];autosize=1;strokeColor=none;fillColor=none;fontStyle=3;fontSize=13;" vertex="1" parent="1">
          <mxGeometry x="800" y="920" width="50" height="30" as="geometry" />
        </mxCell>
      </root>
    </mxGraphModel>
  </diagram>
  <diagram id="5ERk7wwbvAShRum197c0" name="Version-3">
    <mxGraphModel dx="2474" dy="843" grid="1" gridSize="10" guides="1" tooltips="1" connect="1" arrows="1" fold="1" page="0" pageScale="1" pageWidth="827" pageHeight="1169" background="none" math="0" shadow="0">
      <root>
        <mxCell id="0" />
        <mxCell id="1" parent="0" />
        <mxCell id="g6kdKwEsswI9fkPueDpO-2" value="" style="rounded=1;whiteSpace=wrap;html=1;" vertex="1" parent="1">
          <mxGeometry x="-580" y="670" width="180" height="130" as="geometry" />
        </mxCell>
        <mxCell id="g6kdKwEsswI9fkPueDpO-5" value="" style="shape=parallelogram;perimeter=parallelogramPerimeter;whiteSpace=wrap;html=1;fixedSize=1;" vertex="1" parent="1">
          <mxGeometry x="452" y="416.25" width="250" height="167.5" as="geometry" />
        </mxCell>
        <mxCell id="g6kdKwEsswI9fkPueDpO-7" value="D-2" style="ellipse;whiteSpace=wrap;html=1;aspect=fixed;" vertex="1" parent="1">
          <mxGeometry x="-480" y="680" width="50" height="50" as="geometry" />
        </mxCell>
        <mxCell id="g6kdKwEsswI9fkPueDpO-8" value="D-1" style="ellipse;whiteSpace=wrap;html=1;aspect=fixed;" vertex="1" parent="1">
          <mxGeometry x="499.5" y="446.25" width="50" height="50" as="geometry" />
        </mxCell>
        <mxCell id="g6kdKwEsswI9fkPueDpO-9" value="D-1" style="ellipse;whiteSpace=wrap;html=1;aspect=fixed;" vertex="1" parent="1">
          <mxGeometry x="-560" y="680" width="50" height="50" as="geometry" />
        </mxCell>
        <mxCell id="g6kdKwEsswI9fkPueDpO-10" value="D-3" style="ellipse;whiteSpace=wrap;html=1;aspect=fixed;" vertex="1" parent="1">
          <mxGeometry x="-560" y="740" width="50" height="50" as="geometry" />
        </mxCell>
        <mxCell id="g6kdKwEsswI9fkPueDpO-11" value="D-4" style="ellipse;whiteSpace=wrap;html=1;aspect=fixed;" vertex="1" parent="1">
          <mxGeometry x="-480" y="740" width="50" height="50" as="geometry" />
        </mxCell>
        <mxCell id="g6kdKwEsswI9fkPueDpO-17" value="D-2" style="ellipse;whiteSpace=wrap;html=1;aspect=fixed;" vertex="1" parent="1">
          <mxGeometry x="622" y="446.25" width="50" height="50" as="geometry" />
        </mxCell>
        <mxCell id="g6kdKwEsswI9fkPueDpO-18" value="D-4" style="ellipse;whiteSpace=wrap;html=1;aspect=fixed;" vertex="1" parent="1">
          <mxGeometry x="622" y="526.25" width="50" height="50" as="geometry" />
        </mxCell>
        <mxCell id="g6kdKwEsswI9fkPueDpO-19" value="D-3" style="ellipse;whiteSpace=wrap;html=1;aspect=fixed;" vertex="1" parent="1">
          <mxGeometry x="499.5" y="526.25" width="50" height="50" as="geometry" />
        </mxCell>
        <mxCell id="g6kdKwEsswI9fkPueDpO-23" value="Discovery" style="text;html=1;align=center;verticalAlign=middle;resizable=0;points=[];autosize=1;strokeColor=none;fillColor=none;" vertex="1" parent="1">
          <mxGeometry x="-520" y="820" width="80" height="30" as="geometry" />
        </mxCell>
        <mxCell id="g6kdKwEsswI9fkPueDpO-25" value="" style="rounded=0;whiteSpace=wrap;html=1;shadow=0;fillOpacity=0;" vertex="1" parent="1">
          <mxGeometry x="-645" y="380" width="940" height="590" as="geometry" />
        </mxCell>
        <mxCell id="g6kdKwEsswI9fkPueDpO-26" value="&lt;i style=&quot;&quot;&gt;Sending All Devices&lt;/i&gt;" style="text;html=1;align=center;verticalAlign=middle;resizable=0;points=[];autosize=1;strokeColor=none;fillColor=none;" vertex="1" parent="1">
          <mxGeometry x="165" y="468.13" width="130" height="30" as="geometry" />
        </mxCell>
        <mxCell id="g6kdKwEsswI9fkPueDpO-30" value="Go-Process" style="text;html=1;align=center;verticalAlign=middle;resizable=0;points=[];autosize=1;strokeColor=none;fillColor=none;fontStyle=3;fontSize=13;" vertex="1" parent="1">
          <mxGeometry x="494.5" y="380" width="90" height="30" as="geometry" />
        </mxCell>
        <mxCell id="g6kdKwEsswI9fkPueDpO-32" value="Java-Process" style="text;html=1;align=center;verticalAlign=middle;resizable=0;points=[];autosize=1;strokeColor=none;fillColor=none;fontStyle=3;fontSize=19;" vertex="1" parent="1">
          <mxGeometry x="-600" y="330" width="140" height="40" as="geometry" />
        </mxCell>
        <mxCell id="g6kdKwEsswI9fkPueDpO-35" value="GR-1" style="text;html=1;align=center;verticalAlign=middle;resizable=0;points=[];autosize=1;strokeColor=none;fillColor=none;fontStyle=3;fontSize=13;" vertex="1" parent="1">
          <mxGeometry x="499.5" y="416.25" width="50" height="30" as="geometry" />
        </mxCell>
        <mxCell id="g6kdKwEsswI9fkPueDpO-36" value="GR-2" style="text;html=1;align=center;verticalAlign=middle;resizable=0;points=[];autosize=1;strokeColor=none;fillColor=none;fontStyle=3;fontSize=13;" vertex="1" parent="1">
          <mxGeometry x="622" y="416.25" width="50" height="30" as="geometry" />
        </mxCell>
        <mxCell id="g6kdKwEsswI9fkPueDpO-37" value="GR-3" style="text;html=1;align=center;verticalAlign=middle;resizable=0;points=[];autosize=1;strokeColor=none;fillColor=none;fontStyle=3;fontSize=13;" vertex="1" parent="1">
          <mxGeometry x="499.5" y="496.25" width="50" height="30" as="geometry" />
        </mxCell>
        <mxCell id="g6kdKwEsswI9fkPueDpO-38" value="GR-4" style="text;html=1;align=center;verticalAlign=middle;resizable=0;points=[];autosize=1;strokeColor=none;fillColor=none;fontStyle=3;fontSize=13;" vertex="1" parent="1">
          <mxGeometry x="622" y="496.25" width="50" height="30" as="geometry" />
        </mxCell>
        <mxCell id="g6kdKwEsswI9fkPueDpO-42" value="" style="rounded=0;whiteSpace=wrap;html=1;" vertex="1" parent="1">
          <mxGeometry x="-20" y="665" width="120" height="60" as="geometry" />
        </mxCell>
        <mxCell id="g6kdKwEsswI9fkPueDpO-43" value="Worker Thread" style="rounded=0;whiteSpace=wrap;html=1;" vertex="1" parent="1">
          <mxGeometry x="-10" y="675" width="120" height="60" as="geometry" />
        </mxCell>
        <mxCell id="g6kdKwEsswI9fkPueDpO-48" value="Metric-Poller-1" style="rounded=0;whiteSpace=wrap;html=1;" vertex="1" parent="1">
          <mxGeometry x="-20" y="475" width="120" height="60" as="geometry" />
        </mxCell>
        <mxCell id="g6kdKwEsswI9fkPueDpO-158" style="edgeStyle=orthogonalEdgeStyle;rounded=0;orthogonalLoop=1;jettySize=auto;html=1;entryX=0;entryY=0.5;entryDx=0;entryDy=0;" edge="1" parent="1" source="g6kdKwEsswI9fkPueDpO-63" target="g6kdKwEsswI9fkPueDpO-48">
          <mxGeometry relative="1" as="geometry">
            <Array as="points">
              <mxPoint x="-340" y="745" />
              <mxPoint x="-340" y="505" />
            </Array>
          </mxGeometry>
        </mxCell>
        <mxCell id="g6kdKwEsswI9fkPueDpO-63" value="" style="rounded=1;whiteSpace=wrap;html=1;" vertex="1" parent="1">
          <mxGeometry x="-570" y="680" width="180" height="130" as="geometry" />
        </mxCell>
        <mxCell id="g6kdKwEsswI9fkPueDpO-64" value="D-2" style="ellipse;whiteSpace=wrap;html=1;aspect=fixed;" vertex="1" parent="1">
          <mxGeometry x="-470" y="690" width="50" height="50" as="geometry" />
        </mxCell>
        <mxCell id="g6kdKwEsswI9fkPueDpO-65" value="D-1" style="ellipse;whiteSpace=wrap;html=1;aspect=fixed;" vertex="1" parent="1">
          <mxGeometry x="-550" y="690" width="50" height="50" as="geometry" />
        </mxCell>
        <mxCell id="g6kdKwEsswI9fkPueDpO-66" value="D-3" style="ellipse;whiteSpace=wrap;html=1;aspect=fixed;" vertex="1" parent="1">
          <mxGeometry x="-550" y="750" width="50" height="50" as="geometry" />
        </mxCell>
        <mxCell id="g6kdKwEsswI9fkPueDpO-67" value="D-4" style="ellipse;whiteSpace=wrap;html=1;aspect=fixed;" vertex="1" parent="1">
          <mxGeometry x="-470" y="750" width="50" height="50" as="geometry" />
        </mxCell>
        <mxCell id="g6kdKwEsswI9fkPueDpO-164" style="edgeStyle=orthogonalEdgeStyle;rounded=0;orthogonalLoop=1;jettySize=auto;html=1;entryX=0.5;entryY=0;entryDx=0;entryDy=0;" edge="1" parent="1" source="g6kdKwEsswI9fkPueDpO-70" target="g6kdKwEsswI9fkPueDpO-161">
          <mxGeometry relative="1" as="geometry" />
        </mxCell>
        <mxCell id="g6kdKwEsswI9fkPueDpO-70" value="Metric-Poller-1" style="rounded=0;whiteSpace=wrap;html=1;" vertex="1" parent="1">
          <mxGeometry x="-10" y="485" width="120" height="60" as="geometry" />
        </mxCell>
        <mxCell id="g6kdKwEsswI9fkPueDpO-88" value="" style="shape=parallelogram;perimeter=parallelogramPerimeter;whiteSpace=wrap;html=1;fixedSize=1;" vertex="1" parent="1">
          <mxGeometry x="469.5" y="426.88" width="250" height="167.5" as="geometry" />
        </mxCell>
        <mxCell id="g6kdKwEsswI9fkPueDpO-89" value="D-1" style="ellipse;whiteSpace=wrap;html=1;aspect=fixed;" vertex="1" parent="1">
          <mxGeometry x="508.25" y="458.13" width="50" height="50" as="geometry" />
        </mxCell>
        <mxCell id="g6kdKwEsswI9fkPueDpO-90" value="D-2" style="ellipse;whiteSpace=wrap;html=1;aspect=fixed;" vertex="1" parent="1">
          <mxGeometry x="630.75" y="458.13" width="50" height="50" as="geometry" />
        </mxCell>
        <mxCell id="g6kdKwEsswI9fkPueDpO-91" value="D-4" style="ellipse;whiteSpace=wrap;html=1;aspect=fixed;" vertex="1" parent="1">
          <mxGeometry x="630.75" y="538.13" width="50" height="50" as="geometry" />
        </mxCell>
        <mxCell id="g6kdKwEsswI9fkPueDpO-92" value="D-3" style="ellipse;whiteSpace=wrap;html=1;aspect=fixed;" vertex="1" parent="1">
          <mxGeometry x="508.25" y="538.13" width="50" height="50" as="geometry" />
        </mxCell>
        <mxCell id="g6kdKwEsswI9fkPueDpO-93" value="GR-1" style="text;html=1;align=center;verticalAlign=middle;resizable=0;points=[];autosize=1;strokeColor=none;fillColor=none;fontStyle=3;fontSize=13;" vertex="1" parent="1">
          <mxGeometry x="508.25" y="428.13" width="50" height="30" as="geometry" />
        </mxCell>
        <mxCell id="g6kdKwEsswI9fkPueDpO-94" value="GR-2" style="text;html=1;align=center;verticalAlign=middle;resizable=0;points=[];autosize=1;strokeColor=none;fillColor=none;fontStyle=3;fontSize=13;" vertex="1" parent="1">
          <mxGeometry x="630.75" y="428.13" width="50" height="30" as="geometry" />
        </mxCell>
        <mxCell id="g6kdKwEsswI9fkPueDpO-95" value="GR-3" style="text;html=1;align=center;verticalAlign=middle;resizable=0;points=[];autosize=1;strokeColor=none;fillColor=none;fontStyle=3;fontSize=13;" vertex="1" parent="1">
          <mxGeometry x="508.25" y="508.13" width="50" height="30" as="geometry" />
        </mxCell>
        <mxCell id="g6kdKwEsswI9fkPueDpO-96" value="GR-4" style="text;html=1;align=center;verticalAlign=middle;resizable=0;points=[];autosize=1;strokeColor=none;fillColor=none;fontStyle=3;fontSize=13;" vertex="1" parent="1">
          <mxGeometry x="630.75" y="508.13" width="50" height="30" as="geometry" />
        </mxCell>
        <mxCell id="g6kdKwEsswI9fkPueDpO-146" value="" style="endArrow=classic;html=1;rounded=0;entryX=0;entryY=0.5;entryDx=0;entryDy=0;exitX=1;exitY=0.25;exitDx=0;exitDy=0;" edge="1" parent="1" source="g6kdKwEsswI9fkPueDpO-70" target="g6kdKwEsswI9fkPueDpO-5">
          <mxGeometry width="50" height="50" relative="1" as="geometry">
            <mxPoint x="150" y="530" as="sourcePoint" />
            <mxPoint x="200" y="480" as="targetPoint" />
          </mxGeometry>
        </mxCell>
        <mxCell id="g6kdKwEsswI9fkPueDpO-147" value="" style="endArrow=classic;html=1;rounded=0;entryX=1;entryY=0.75;entryDx=0;entryDy=0;exitX=0.032;exitY=0.679;exitDx=0;exitDy=0;exitPerimeter=0;" edge="1" parent="1" source="g6kdKwEsswI9fkPueDpO-5" target="g6kdKwEsswI9fkPueDpO-70">
          <mxGeometry width="50" height="50" relative="1" as="geometry">
            <mxPoint x="200" y="560" as="sourcePoint" />
            <mxPoint x="320" y="550" as="targetPoint" />
          </mxGeometry>
        </mxCell>
        <mxCell id="g6kdKwEsswI9fkPueDpO-148" value="&lt;i style=&quot;&quot;&gt;Get All devices With status&lt;/i&gt;" style="text;html=1;align=center;verticalAlign=middle;resizable=0;points=[];autosize=1;strokeColor=none;fillColor=none;" vertex="1" parent="1">
          <mxGeometry x="155" y="535" width="170" height="30" as="geometry" />
        </mxCell>
        <mxCell id="g6kdKwEsswI9fkPueDpO-161" value="" style="rounded=0;whiteSpace=wrap;html=1;" vertex="1" parent="1">
          <mxGeometry x="-10" y="675" width="120" height="60" as="geometry" />
        </mxCell>
        <mxCell id="g6kdKwEsswI9fkPueDpO-162" value="Worker Thread" style="rounded=0;whiteSpace=wrap;html=1;" vertex="1" parent="1">
          <mxGeometry y="685" width="120" height="60" as="geometry" />
        </mxCell>
        <mxCell id="g6kdKwEsswI9fkPueDpO-165" value="" style="rounded=1;whiteSpace=wrap;html=1;" vertex="1" parent="1">
          <mxGeometry x="-580" y="1480" width="180" height="130" as="geometry" />
        </mxCell>
        <mxCell id="g6kdKwEsswI9fkPueDpO-166" value="" style="shape=parallelogram;perimeter=parallelogramPerimeter;whiteSpace=wrap;html=1;fixedSize=1;" vertex="1" parent="1">
          <mxGeometry x="452" y="1226.25" width="250" height="167.5" as="geometry" />
        </mxCell>
        <mxCell id="g6kdKwEsswI9fkPueDpO-167" value="D-2" style="ellipse;whiteSpace=wrap;html=1;aspect=fixed;" vertex="1" parent="1">
          <mxGeometry x="-480" y="1490" width="50" height="50" as="geometry" />
        </mxCell>
        <mxCell id="g6kdKwEsswI9fkPueDpO-168" value="D-1" style="ellipse;whiteSpace=wrap;html=1;aspect=fixed;" vertex="1" parent="1">
          <mxGeometry x="499.5" y="1256.25" width="50" height="50" as="geometry" />
        </mxCell>
        <mxCell id="g6kdKwEsswI9fkPueDpO-169" value="D-1" style="ellipse;whiteSpace=wrap;html=1;aspect=fixed;" vertex="1" parent="1">
          <mxGeometry x="-560" y="1490" width="50" height="50" as="geometry" />
        </mxCell>
        <mxCell id="g6kdKwEsswI9fkPueDpO-170" value="D-3" style="ellipse;whiteSpace=wrap;html=1;aspect=fixed;" vertex="1" parent="1">
          <mxGeometry x="-560" y="1550" width="50" height="50" as="geometry" />
        </mxCell>
        <mxCell id="g6kdKwEsswI9fkPueDpO-171" value="D-4" style="ellipse;whiteSpace=wrap;html=1;aspect=fixed;" vertex="1" parent="1">
          <mxGeometry x="-480" y="1550" width="50" height="50" as="geometry" />
        </mxCell>
        <mxCell id="g6kdKwEsswI9fkPueDpO-172" value="D-2" style="ellipse;whiteSpace=wrap;html=1;aspect=fixed;" vertex="1" parent="1">
          <mxGeometry x="622" y="1256.25" width="50" height="50" as="geometry" />
        </mxCell>
        <mxCell id="g6kdKwEsswI9fkPueDpO-173" value="D-4" style="ellipse;whiteSpace=wrap;html=1;aspect=fixed;" vertex="1" parent="1">
          <mxGeometry x="622" y="1336.25" width="50" height="50" as="geometry" />
        </mxCell>
        <mxCell id="g6kdKwEsswI9fkPueDpO-174" value="D-3" style="ellipse;whiteSpace=wrap;html=1;aspect=fixed;" vertex="1" parent="1">
          <mxGeometry x="499.5" y="1336.25" width="50" height="50" as="geometry" />
        </mxCell>
        <mxCell id="g6kdKwEsswI9fkPueDpO-175" value="Discovery" style="text;html=1;align=center;verticalAlign=middle;resizable=0;points=[];autosize=1;strokeColor=none;fillColor=none;" vertex="1" parent="1">
          <mxGeometry x="-520" y="1630" width="80" height="30" as="geometry" />
        </mxCell>
        <mxCell id="g6kdKwEsswI9fkPueDpO-176" value="" style="rounded=0;whiteSpace=wrap;html=1;shadow=0;fillOpacity=0;" vertex="1" parent="1">
          <mxGeometry x="-600" y="1200" width="950" height="580" as="geometry" />
        </mxCell>
        <mxCell id="g6kdKwEsswI9fkPueDpO-177" value="&lt;i style=&quot;&quot;&gt;Sending Devices with status Success&lt;/i&gt;" style="text;html=1;align=center;verticalAlign=middle;resizable=0;points=[];autosize=1;strokeColor=none;fillColor=none;" vertex="1" parent="1">
          <mxGeometry x="130" y="1285" width="220" height="30" as="geometry" />
        </mxCell>
        <mxCell id="g6kdKwEsswI9fkPueDpO-178" value="Go-Process" style="text;html=1;align=center;verticalAlign=middle;resizable=0;points=[];autosize=1;strokeColor=none;fillColor=none;fontStyle=3;fontSize=13;" vertex="1" parent="1">
          <mxGeometry x="494.5" y="1190" width="90" height="30" as="geometry" />
        </mxCell>
        <mxCell id="g6kdKwEsswI9fkPueDpO-179" value="Java-Process" style="text;html=1;align=center;verticalAlign=middle;resizable=0;points=[];autosize=1;strokeColor=none;fillColor=none;fontStyle=3;fontSize=19;" vertex="1" parent="1">
          <mxGeometry x="-590" y="1130" width="140" height="40" as="geometry" />
        </mxCell>
        <mxCell id="g6kdKwEsswI9fkPueDpO-180" value="GR-1" style="text;html=1;align=center;verticalAlign=middle;resizable=0;points=[];autosize=1;strokeColor=none;fillColor=none;fontStyle=3;fontSize=13;" vertex="1" parent="1">
          <mxGeometry x="499.5" y="1226.25" width="50" height="30" as="geometry" />
        </mxCell>
        <mxCell id="g6kdKwEsswI9fkPueDpO-181" value="GR-2" style="text;html=1;align=center;verticalAlign=middle;resizable=0;points=[];autosize=1;strokeColor=none;fillColor=none;fontStyle=3;fontSize=13;" vertex="1" parent="1">
          <mxGeometry x="622" y="1226.25" width="50" height="30" as="geometry" />
        </mxCell>
        <mxCell id="g6kdKwEsswI9fkPueDpO-182" value="GR-3" style="text;html=1;align=center;verticalAlign=middle;resizable=0;points=[];autosize=1;strokeColor=none;fillColor=none;fontStyle=3;fontSize=13;" vertex="1" parent="1">
          <mxGeometry x="499.5" y="1306.25" width="50" height="30" as="geometry" />
        </mxCell>
        <mxCell id="g6kdKwEsswI9fkPueDpO-183" value="GR-4" style="text;html=1;align=center;verticalAlign=middle;resizable=0;points=[];autosize=1;strokeColor=none;fillColor=none;fontStyle=3;fontSize=13;" vertex="1" parent="1">
          <mxGeometry x="622" y="1306.25" width="50" height="30" as="geometry" />
        </mxCell>
        <mxCell id="g6kdKwEsswI9fkPueDpO-184" value="" style="rounded=0;whiteSpace=wrap;html=1;" vertex="1" parent="1">
          <mxGeometry x="-20" y="1475" width="120" height="60" as="geometry" />
        </mxCell>
        <mxCell id="g6kdKwEsswI9fkPueDpO-185" value="Worker Thread" style="rounded=0;whiteSpace=wrap;html=1;" vertex="1" parent="1">
          <mxGeometry x="-10" y="1485" width="120" height="60" as="geometry" />
        </mxCell>
        <mxCell id="g6kdKwEsswI9fkPueDpO-186" value="Metric-Poller-1" style="rounded=0;whiteSpace=wrap;html=1;" vertex="1" parent="1">
          <mxGeometry x="-20" y="1285" width="120" height="60" as="geometry" />
        </mxCell>
        <mxCell id="g6kdKwEsswI9fkPueDpO-212" style="edgeStyle=orthogonalEdgeStyle;rounded=0;orthogonalLoop=1;jettySize=auto;html=1;entryX=0;entryY=0.5;entryDx=0;entryDy=0;" edge="1" parent="1" source="g6kdKwEsswI9fkPueDpO-188">
          <mxGeometry relative="1" as="geometry">
            <mxPoint x="-260" y="1325" as="targetPoint" />
          </mxGeometry>
        </mxCell>
        <mxCell id="g6kdKwEsswI9fkPueDpO-188" value="" style="rounded=1;whiteSpace=wrap;html=1;" vertex="1" parent="1">
          <mxGeometry x="-570" y="1490" width="180" height="130" as="geometry" />
        </mxCell>
        <mxCell id="g6kdKwEsswI9fkPueDpO-189" value="D-2" style="ellipse;whiteSpace=wrap;html=1;aspect=fixed;" vertex="1" parent="1">
          <mxGeometry x="-470" y="1500" width="50" height="50" as="geometry" />
        </mxCell>
        <mxCell id="g6kdKwEsswI9fkPueDpO-190" value="D-1" style="ellipse;whiteSpace=wrap;html=1;aspect=fixed;" vertex="1" parent="1">
          <mxGeometry x="-550" y="1500" width="50" height="50" as="geometry" />
        </mxCell>
        <mxCell id="g6kdKwEsswI9fkPueDpO-191" value="D-3" style="ellipse;whiteSpace=wrap;html=1;aspect=fixed;" vertex="1" parent="1">
          <mxGeometry x="-550" y="1560" width="50" height="50" as="geometry" />
        </mxCell>
        <mxCell id="g6kdKwEsswI9fkPueDpO-192" value="D-4" style="ellipse;whiteSpace=wrap;html=1;aspect=fixed;" vertex="1" parent="1">
          <mxGeometry x="-470" y="1560" width="50" height="50" as="geometry" />
        </mxCell>
        <mxCell id="g6kdKwEsswI9fkPueDpO-193" style="edgeStyle=orthogonalEdgeStyle;rounded=0;orthogonalLoop=1;jettySize=auto;html=1;entryX=0.5;entryY=0;entryDx=0;entryDy=0;" edge="1" source="g6kdKwEsswI9fkPueDpO-194" target="g6kdKwEsswI9fkPueDpO-207" parent="1">
          <mxGeometry relative="1" as="geometry" />
        </mxCell>
        <mxCell id="g6kdKwEsswI9fkPueDpO-194" value="Metric-Poller-1" style="rounded=0;whiteSpace=wrap;html=1;" vertex="1" parent="1">
          <mxGeometry x="-10" y="1295" width="120" height="60" as="geometry" />
        </mxCell>
        <mxCell id="g6kdKwEsswI9fkPueDpO-195" value="" style="shape=parallelogram;perimeter=parallelogramPerimeter;whiteSpace=wrap;html=1;fixedSize=1;" vertex="1" parent="1">
          <mxGeometry x="469.5" y="1236.88" width="250" height="167.5" as="geometry" />
        </mxCell>
        <mxCell id="g6kdKwEsswI9fkPueDpO-196" value="D-1" style="ellipse;whiteSpace=wrap;html=1;aspect=fixed;" vertex="1" parent="1">
          <mxGeometry x="508.25" y="1268.13" width="50" height="50" as="geometry" />
        </mxCell>
        <mxCell id="g6kdKwEsswI9fkPueDpO-197" value="D-2" style="ellipse;whiteSpace=wrap;html=1;aspect=fixed;" vertex="1" parent="1">
          <mxGeometry x="630.75" y="1268.13" width="50" height="50" as="geometry" />
        </mxCell>
        <mxCell id="g6kdKwEsswI9fkPueDpO-198" value="D-4" style="ellipse;whiteSpace=wrap;html=1;aspect=fixed;" vertex="1" parent="1">
          <mxGeometry x="630.75" y="1348.13" width="50" height="50" as="geometry" />
        </mxCell>
        <mxCell id="g6kdKwEsswI9fkPueDpO-199" value="D-3" style="ellipse;whiteSpace=wrap;html=1;aspect=fixed;" vertex="1" parent="1">
          <mxGeometry x="508.25" y="1348.13" width="50" height="50" as="geometry" />
        </mxCell>
        <mxCell id="g6kdKwEsswI9fkPueDpO-200" value="GR-1" style="text;html=1;align=center;verticalAlign=middle;resizable=0;points=[];autosize=1;strokeColor=none;fillColor=none;fontStyle=3;fontSize=13;" vertex="1" parent="1">
          <mxGeometry x="508.25" y="1238.13" width="50" height="30" as="geometry" />
        </mxCell>
        <mxCell id="g6kdKwEsswI9fkPueDpO-201" value="GR-2" style="text;html=1;align=center;verticalAlign=middle;resizable=0;points=[];autosize=1;strokeColor=none;fillColor=none;fontStyle=3;fontSize=13;" vertex="1" parent="1">
          <mxGeometry x="630.75" y="1238.13" width="50" height="30" as="geometry" />
        </mxCell>
        <mxCell id="g6kdKwEsswI9fkPueDpO-202" value="GR-3" style="text;html=1;align=center;verticalAlign=middle;resizable=0;points=[];autosize=1;strokeColor=none;fillColor=none;fontStyle=3;fontSize=13;" vertex="1" parent="1">
          <mxGeometry x="508.25" y="1318.13" width="50" height="30" as="geometry" />
        </mxCell>
        <mxCell id="g6kdKwEsswI9fkPueDpO-203" value="GR-4" style="text;html=1;align=center;verticalAlign=middle;resizable=0;points=[];autosize=1;strokeColor=none;fillColor=none;fontStyle=3;fontSize=13;" vertex="1" parent="1">
          <mxGeometry x="630.75" y="1318.13" width="50" height="30" as="geometry" />
        </mxCell>
        <mxCell id="g6kdKwEsswI9fkPueDpO-204" value="" style="endArrow=classic;html=1;rounded=0;entryX=0;entryY=0.5;entryDx=0;entryDy=0;exitX=1;exitY=0.25;exitDx=0;exitDy=0;" edge="1" source="g6kdKwEsswI9fkPueDpO-194" target="g6kdKwEsswI9fkPueDpO-166" parent="1">
          <mxGeometry width="50" height="50" relative="1" as="geometry">
            <mxPoint x="150" y="1340" as="sourcePoint" />
            <mxPoint x="200" y="1290" as="targetPoint" />
          </mxGeometry>
        </mxCell>
        <mxCell id="g6kdKwEsswI9fkPueDpO-205" value="" style="endArrow=classic;html=1;rounded=0;entryX=1;entryY=0.75;entryDx=0;entryDy=0;exitX=0.032;exitY=0.679;exitDx=0;exitDy=0;exitPerimeter=0;" edge="1" source="g6kdKwEsswI9fkPueDpO-166" target="g6kdKwEsswI9fkPueDpO-194" parent="1">
          <mxGeometry width="50" height="50" relative="1" as="geometry">
            <mxPoint x="200" y="1370" as="sourcePoint" />
            <mxPoint x="320" y="1360" as="targetPoint" />
          </mxGeometry>
        </mxCell>
        <mxCell id="g6kdKwEsswI9fkPueDpO-206" value="&lt;i style=&quot;&quot;&gt;Get Metrics of Devices&lt;/i&gt;" style="text;html=1;align=center;verticalAlign=middle;resizable=0;points=[];autosize=1;strokeColor=none;fillColor=none;" vertex="1" parent="1">
          <mxGeometry x="165" y="1345" width="140" height="30" as="geometry" />
        </mxCell>
        <mxCell id="g6kdKwEsswI9fkPueDpO-207" value="" style="rounded=0;whiteSpace=wrap;html=1;" vertex="1" parent="1">
          <mxGeometry x="-10" y="1485" width="120" height="60" as="geometry" />
        </mxCell>
        <mxCell id="g6kdKwEsswI9fkPueDpO-208" value="Worker Thread" style="rounded=0;whiteSpace=wrap;html=1;" vertex="1" parent="1">
          <mxGeometry y="1495" width="120" height="60" as="geometry" />
        </mxCell>
        <mxCell id="g6kdKwEsswI9fkPueDpO-209" value="Scheuler" style="rounded=0;whiteSpace=wrap;html=1;" vertex="1" parent="1">
          <mxGeometry x="-270" y="1285" width="120" height="60" as="geometry" />
        </mxCell>
        <mxCell id="g6kdKwEsswI9fkPueDpO-213" style="edgeStyle=orthogonalEdgeStyle;rounded=0;orthogonalLoop=1;jettySize=auto;html=1;entryX=0;entryY=0.5;entryDx=0;entryDy=0;" edge="1" parent="1" target="g6kdKwEsswI9fkPueDpO-194">
          <mxGeometry relative="1" as="geometry">
            <mxPoint x="-140" y="1325" as="sourcePoint" />
          </mxGeometry>
        </mxCell>
      </root>
    </mxGraphModel>
  </diagram>
</mxfile>
